<svg xmlns="http://www.w3.org/2000/svg" version="1.1" xmlns:xlink="http://www.w3.org/1999/xlink" xmlns:svgjs="http://svgjs.dev/svgjs" width="100%" height="100%" viewBox="0 0 1000 600"><rect width="1000" height="600" x="0" y="0" fill="#1183cf"/><g><circle r="166.66666666666666" cx="345.60953776041663" cy="367.83175960273354" fill="#151c48" transform="matrix(0.6985468456753732,0,0,0.6985468456753732,0,43.05226274892166)"/><path d="M375.98701703025563 429.761960052018L375.98701703025563 429.761960052018Q380.6166467772874 429.761960052018 388.30895466466325 419.113811633845Q396.0012625520391 408.46566321567184 403.5511202933524 391.69215851681065Q411.1365905711814 374.88304128143375 412.77476725090037 374.88304128143375Q414.44855646713495 374.88304128143375 414.44855646713495 376.9485683993403L414.44855646713495 376.9485683993403Q414.44855646713495 384.10668823898163 407.00553633536845 399.7405917693428L407.00553633536845 399.7405917693428Q386.7776155944912 442.8317609532538 372.6750511343021 442.8317609532538L372.6750511343021 442.8317609532538Q360.8516890111133 442.8317609532538 355.72348375286276 438.7363192539565L355.72348375286276 438.7363192539565Q353.44428141586246 436.42150438044064 353.44428141586246 390.01836930057607L353.44428141586246 390.01836930057607L311.3858757909046 393.0810474409202Q306.5069582882635 406.435748634281 302.6608043445756 419.75483729112625Q298.8146504008876 433.0739259479715 297.532599086325 436.1722166248312L297.532599086325 436.1722166248312Q294.7192087015903 442.8317609532538 283.92861013735467 442.8317609532538L283.92861013735467 442.8317609532538Q276.7704902977133 442.8317609532538 276.7704902977133 436.67079213605007Q276.7704902977133 430.5098233188462 286.49271276648 418.72207373217304L286.49271276648 418.72207373217304Q288.30895212877704 416.4072588586571 298.3160748896688 393.864523244264L298.3160748896688 393.864523244264Q294.7192087015903 394.1138109998734 291.37163026912117 394.1138109998734L291.37163026912117 394.1138109998734Q282.39727106718266 394.1138109998734 282.39727106718266 386.4215031124976L282.39727106718266 386.4215031124976Q282.39727106718266 379.51267102846555 289.59100344333973 379.51267102846555L289.59100344333973 379.51267102846555Q290.08957895455853 379.51267102846555 304.1921434147476 380.7947223430282L304.1921434147476 380.7947223430282Q308.03829735843556 371.8203631410896 312.4186393498579 363.0952916947606L312.4186393498579 363.0952916947606Q346.001261284096 292.83175714942456 358.57248667411307 292.83175714942456L358.57248667411307 292.83175714942456Q368.0454213872704 292.83175714942456 371.64228757534886 380.7947223430282L371.64228757534886 380.7947223430282L373.95710244886476 380.7947223430282Q375.7377292746462 380.7947223430282 375.7377292746462 383.35882497215346Q375.7377292746462 385.92292760127873 371.8915753309583 387.7035544270602L371.8915753309583 387.7035544270602Q373.42291440113036 429.761960052018 375.98701703025563 429.761960052018ZM315.2320297345926 382.0767736575908L315.2320297345926 382.0767736575908Q345.2177854807522 382.0767736575908 353.44428141586246 381.7918733654658L353.44428141586246 381.7918733654658Q353.15938112373743 377.69643166616845 352.91009336812806 367.44002114966725Q352.66080561251863 357.18361063316615 352.4115178569092 349.63375289185285Q352.1622301012998 342.04828261402383 351.8773298091748 333.85739921542915L351.8773298091748 333.85739921542915Q350.8801787867372 316.15796856716156 348.8146516688307 316.15796856716156L348.8146516688307 316.15796856716156Q346.001261284096 316.15796856716156 337.2761898377669 332.82463565647595Q328.5511183914378 349.49130274579034 323.6722008887966 361.02976457685406L323.6722008887966 361.02976457685406Q317.012656560374 377.69643166616845 315.2320297345926 382.0767736575908Z " fill="#39a7f2" transform="matrix(0.6985468456753732,0,0,0.6985468456753732,0,43.05226274892166)"/><path d="M660.1002630204121 381.836380864788L660.1002630204121 381.836380864788Q663.1095221379502 381.836380864788 668.1095219024751 374.9150848944503Q673.1095216669999 367.99378892411266 678.0169288432928 357.09101165980144Q682.9474841666438 346.1650862484323 684.0122989313111 346.1650862484323Q685.1002618430364 346.1650862484323 685.1002618430364 347.5076787777955L685.1002618430364 347.5076787777955Q685.1002618430364 352.1604563364506 680.2622991079174 362.3224928949062L680.2622991079174 362.3224928949062Q667.1141515789817 390.33175083506865 657.9474853440195 390.33175083506865L657.9474853440195 390.33175083506865Q650.2623005207682 390.33175083506865 646.9289673444183 387.6697139234003L646.9289673444183 387.6697139234003Q645.4474859327072 386.1650843646313 645.4474859327072 356.00304874807614L645.4474859327072 356.00304874807614L618.1095242572263 357.9937893950629Q614.9382281102824 366.6743445418075 612.4382282280199 375.3317515414941Q609.9382283457575 383.9891585411807 609.1048950516699 386.00304733522535L609.1048950516699 386.00304733522535Q607.2761914340891 390.33175083506865 600.2623028755195 390.33175083506865L600.2623028755195 390.33175083506865Q595.6095253168644 390.33175083506865 595.6095253168644 386.32712139403714Q595.6095253168644 382.32249195300574 601.9289694636944 374.6604552768125L601.9289694636944 374.6604552768125Q603.1095249636517 373.1558257180434 609.6141542869457 358.50304863033864L609.6141542869457 358.50304863033864Q607.2761914340891 358.6650856597445 605.1002656106384 358.6650856597445L605.1002656106384 358.6650856597445Q599.2669325520261 358.6650856597445 599.2669325520261 353.6650858952196L599.2669325520261 353.6650858952196Q599.2669325520261 349.17434536597045 603.9428582577392 349.17434536597045L603.9428582577392 349.17434536597045Q604.266932316551 349.17434536597045 613.4335985515133 350.0076786600579L613.4335985515133 350.0076786600579Q615.9335984337757 344.17434560144557 618.7808205219079 338.5030495722391L618.7808205219079 338.5030495722391Q640.6095231975883 292.8317554268337 648.7808191090571 292.8317554268337L648.7808191090571 292.8317554268337Q654.9382262264812 292.8317554268337 657.2761890793379 350.0076786600579L657.2761890793379 350.0076786600579L658.7808186381069 350.0076786600579Q659.9382259910062 350.0076786600579 659.9382259910062 351.67434524823284Q659.9382259910062 353.3410118364078 657.4382261087437 354.4984191893071L657.4382261087437 354.4984191893071Q658.4335964322371 381.836380864788 660.1002630204121 381.836380864788ZM620.6095241394887 350.8410119541454L620.6095241394887 350.8410119541454Q640.1002639623125 350.8410119541454 645.4474859327072 350.65582677768145L645.4474859327072 350.65582677768145Q645.2623007562433 347.9937898660131 645.1002637268375 341.3271235133134Q644.9382266974316 334.66045716061353 644.7761896680256 329.75304998432057Q644.6141526386198 324.8224946609697 644.4289674621559 319.49842083763303L644.4289674621559 319.49842083763303Q643.7808193445323 307.9937917498142 642.4382268151692 307.9937917498142L642.4382268151692 307.9937917498142Q640.6095231975883 307.9937917498142 634.9382271683818 318.82712457295145Q629.2669311391753 329.66045739608865 626.0956349922313 337.1604570428759L626.0956349922313 337.1604570428759Q621.766931492388 347.9937898660131 620.6095241394887 350.8410119541454ZM715.7715566948673 363.98915948308115Q710.6095199009364 377.66971439435065 706.1882238128612 383.9891585411807Q701.766927724786 390.33175083506865 694.6141502838685 390.33175083506865Q687.438224695893 390.33175083506865 682.5308175196001 384.17434371764455Q677.6002621962491 377.99378845316244 677.6002621962491 364.4984187183568Q677.6002621962491 351.00304898355125 685.1928544312684 340.6558272486318Q692.7622985192296 330.33175366077023 705.1002609011359 330.33175366077023L705.1002609011359 330.33175366077023Q707.6002607833983 330.33175366077023 711.0956309891542 332.4150868959889Q714.614149341968 334.4984201312076 717.2761862536363 337.5076792487457L717.2761862536363 337.5076792487457Q717.762297341854 335.84101266057075 722.1141489887552 332.25304986658307Q726.4428524885985 328.66508707259527 728.850259782629 328.66508707259527Q731.2808152237175 328.66508707259527 731.2808152237175 335.84101266057075Q731.2808152237175 342.99379010148834 728.2715561061794 348.50304910128887L728.2715561061794 348.50304910128887Q726.6048895180045 359.66045598323785 726.4428524885985 369.1743444240699L726.4428524885985 369.1743444240699Q742.7622961644784 348.50304910128887 743.8502590762037 347.32249360133164Q744.938221987929 346.1650862484323 745.7715552820165 346.1650862484323L745.7715552820165 346.1650862484323Q747.4382218701913 346.1650862484323 747.4382218701913 347.8317528366073L747.4382218701913 347.8317528366073Q747.4382218701913 348.82712316010065 746.7669256055099 350.0076786600579L746.7669256055099 350.0076786600579Q741.4428517821732 357.83175236565705 725.771556223917 377.5076773649447L725.771556223917 377.5076773649447Q724.7761859004236 397.3224912465803 724.4289636945538 404.49841683455577L724.4289636945538 404.49841683455577Q723.5956304004663 425.65582324555453 718.5261861947675 434.2437858040672Q713.4335938420107 442.8317483625798 700.4474833424808 442.8317483625798L700.4474833424808 442.8317483625798Q694.7761873132744 442.8317483625798 689.8456319899235 439.40582259799794Q684.9382248136305 436.0030449804741 684.9382248136305 427.57711945136737Q684.9382248136305 419.17434206931864 691.3502615486925 410.3317498931682Q697.7622982837545 401.48915771701775 714.7761863713739 383.15582524709316L714.7761863713739 383.15582524709316L715.7715566948673 363.98915948308115ZM704.1048905776425 336.3271237487885L704.1048905776425 336.3271237487885Q699.4289648719295 336.3271237487885 694.1974836368247 343.5724937779379Q688.942854254662 350.8410119541454 688.942854254662 360.2391596596875Q688.942854254662 369.6604555122876 691.6974837545623 375.58638115913186Q694.4289651074046 381.4891586589182 698.595631577842 381.4891586589182Q702.7622980482794 381.4891586589182 706.6048904599049 374.6604552768125Q710.4474828715305 367.8317518947067 716.4428529595488 351.1650860129572L716.4428529595488 351.1650860129572Q716.7669270183607 345.49378998375073 716.7669270183607 343.9891604249817L716.7669270183607 343.9891604249817Q715.4474826360555 341.4891605427192 711.280816165618 338.9197162192828Q707.1141496951807 336.3271237487885 704.1048905776425 336.3271237487885ZM713.4335938420107 407.32249077563006L714.2669271360982 391.00304709975023Q695.2622984014921 411.4891572460674 695.2622984014921 423.82711962797373L695.2622984014921 423.82711962797373Q695.2622984014921 429.4984156571802 697.2761871955369 433.1558228923419Q699.2669278425236 436.8363782745615 702.7622980482794 436.8363782745615L702.7622980482794 436.8363782745615Q708.1095200186741 436.8363782745615 710.2622976950666 431.0030452159492Q712.4382235185172 425.1697121573369 713.4335938420107 407.32249077563006L713.4335938420107 407.32249077563006ZM777.7622945161525 363.98915948308115Q772.6002577222217 377.66971439435065 768.1789616341465 383.9891585411807Q763.7808136931292 390.33175083506865 756.6048881051537 390.33175083506865Q749.4289625171781 390.33175083506865 744.5215553408852 384.17434371764455Q739.6141481645923 377.99378845316244 739.6141481645923 364.4984187183568Q739.6141481645923 351.00304898355125 747.1835922525536 340.6558272486318Q754.7761844875728 330.33175366077023 767.1141468694791 330.33175366077023L767.1141468694791 330.33175366077023Q769.6141467517415 330.33175366077023 773.1095169574974 332.4150868959889Q776.6048871632532 334.4984201312076 779.2669240749215 337.5076792487457L779.2669240749215 337.5076792487457Q779.7761833101972 335.84101266057075 784.1048868100405 332.25304986658307Q788.4335903098837 328.66508707259527 790.8641457509723 328.66508707259527Q793.2715530450027 328.66508707259527 793.2715530450027 335.84101266057075Q793.2715530450027 342.99379010148834 790.2622939274646 348.50304910128887L790.2622939274646 348.50304910128887Q788.5956273392896 359.66045598323785 788.4335903098837 369.1743444240699L788.4335903098837 369.1743444240699Q804.7761821328215 348.50304910128887 805.8641450445468 347.32249360133164Q806.9289598092142 346.1650862484323 807.7622931033017 346.1650862484323L807.7622931033017 346.1650862484323Q809.4289596914766 346.1650862484323 809.4289596914766 347.8317528366073L809.4289596914766 347.8317528366073Q809.4289596914766 348.82712316010065 808.780811573853 350.0076786600579L808.780811573853 350.0076786600579Q803.4335896034584 357.83175236565705 787.7622940452021 377.5076773649447L787.7622940452021 377.5076773649447Q786.7669237217088 397.3224912465803 786.442849662897 404.49841683455577L786.442849662897 404.49841683455577Q785.6095163688095 425.65582324555453 780.5169240160527 434.2437858040672Q775.4474798103539 442.8317483625798 762.438221163766 442.8317483625798L762.438221163766 442.8317483625798Q756.7669251345595 442.8317483625798 751.8595179582667 439.40582259799794Q746.9289626349157 436.0030449804741 746.9289626349157 427.57711945136737Q746.9289626349157 419.17434206931864 753.3641475170357 410.3317498931682Q759.7761842520977 401.48915771701775 776.7669241926591 383.15582524709316L776.7669241926591 383.15582524709316L777.7622945161525 363.98915948308115ZM766.0956283989277 336.3271237487885L766.0956283989277 336.3271237487885Q761.4428508402726 336.3271237487885 756.18822145811 343.5724937779379Q750.9335920759472 350.8410119541454 750.9335920759472 360.2391596596875Q750.9335920759472 369.6604555122876 753.6882215758475 375.58638115913186Q756.4428510757477 381.4891586589182 760.6095175461852 381.4891586589182Q764.7761840166226 381.4891586589182 768.5956282811902 374.6604552768125Q772.4382206928158 367.8317518947067 778.433590780834 351.1650860129572L778.433590780834 351.1650860129572Q778.7808129867038 345.49378998375073 778.7808129867038 343.9891604249817L778.7808129867038 343.9891604249817Q777.4382204573407 341.4891605427192 773.2715539869033 338.9197162192828Q769.1048875164659 336.3271237487885 766.0956283989277 336.3271237487885ZM775.4474798103539 407.32249077563006L776.2808131044413 391.00304709975023Q757.2761843698353 411.4891572460674 757.2761843698353 423.82711962797373L757.2761843698353 423.82711962797373Q757.2761843698353 429.4984156571802 759.266925016822 433.1558228923419Q761.2808138108668 436.8363782745615 764.7761840166226 436.8363782745615L764.7761840166226 436.8363782745615Q770.1002578399592 436.8363782745615 772.2761836634098 431.0030452159492Q774.4289613398025 425.1697121573369 775.4474798103539 407.32249077563006L775.4474798103539 407.32249077563006ZM848.4335874841822 390.33175083506865L848.4335874841822 390.33175083506865Q841.9289581608883 390.33175083506865 838.5956249845384 387.6697139234003L838.5956249845384 387.6697139234003Q837.4382176316391 386.4891584234431 837.4382176316391 381.7437882765561Q837.4382176316391 376.99841812966906 837.762291690451 368.98915924760604L837.762291690451 368.98915924760604Q833.4335881906076 379.82249207074324 829.1974772789962 385.077121452906Q824.9382182203269 390.33175083506865 818.2715518676271 390.33175083506865Q811.6048855149272 390.33175083506865 806.6048857504023 384.0817511294126Q801.6048859858776 377.8317514237565 801.6048859858776 364.40582613012486Q801.6048859858776 351.00304898355125 809.1974782208968 340.6558272486318Q816.766922308858 330.33175366077023 829.1048846907643 330.33175366077023L829.1048846907643 330.33175366077023Q834.4289585141009 330.33175366077023 841.0956248668009 337.32249407228187L841.0956248668009 337.32249407228187Q842.438217396164 335.49379045470096 845.8641431607458 332.92434613126466Q849.2669207782698 330.33175366077023 851.6974762193582 330.33175366077023Q854.1048835133887 330.33175366077023 854.1048835133887 336.6743459546583L854.1048835133887 336.6743459546583Q854.1048835133887 338.34101254283325 853.1789576310692 343.1558271308942Q852.2761798958078 347.9937898660131 851.0956243958506 350.1697156894638L851.0956243958506 350.1697156894638Q849.6141429841394 353.9891599540314 849.6141429841394 377.32249218848085L849.6141429841394 377.32249218848085Q849.6141429841394 381.836380864788 850.6095133076328 381.836380864788L850.6095133076328 381.836380864788Q853.4335872487071 381.67434383538205 858.433587013232 374.75304786504444Q863.4335867777568 367.8317518947067 868.3641421011077 356.9984190715695Q873.2715492774006 346.1650862484323 874.359512189126 346.1650862484323Q875.4474751008513 346.1650862484323 875.4474751008513 347.5076787777955L875.4474751008513 347.5076787777955Q875.4474751008513 352.1604563364506 870.6095123657324 362.3224928949062L870.6095123657324 362.3224928949062Q857.4382166897386 390.33175083506865 848.4335874841822 390.33175083506865ZM828.1095143672709 336.9984200134701L828.1095143672709 336.9984200134701Q823.4335886615578 336.9984200134701 818.1789592793951 343.9197159838077Q812.9474780442905 350.8410119541454 812.9474780442905 360.1697152185136Q812.9474780442905 369.4984184828817 815.6789593971326 375.49378857089994Q818.433588897033 381.4891586589182 822.9474775733402 381.4891586589182L822.9474775733402 381.4891586589182Q828.4335884260828 381.4891586589182 839.1048842198142 353.9891599540314L839.1048842198142 353.9891599540314Q839.26692124922 352.6697155717262 839.5215508668579 349.4058268365503Q839.7761804844956 346.1650862484323 839.9382175139016 344.49841966025735L839.9382175139016 344.49841966025735Q838.4335879551325 341.836382748589 834.6835881317388 339.40582730750054Q830.9335883083452 336.9984200134701 828.1095143672709 336.9984200134701ZM903.5956219233616 363.98915948308115Q898.433585129431 377.66971439435065 894.0122890413558 383.9891585411807Q889.6141411003384 390.33175083506865 882.438215512363 390.33175083506865Q875.2622899243873 390.33175083506865 870.3548827480945 384.17434371764455Q865.4474755718016 377.99378845316244 865.4474755718016 364.4984187183568Q865.4474755718016 351.00304898355125 873.0169196597628 340.6558272486318Q880.609511894782 330.33175366077023 892.9474742766884 330.33175366077023L892.9474742766884 330.33175366077023Q895.4474741589507 330.33175366077023 898.9428443647066 332.4150868959889Q902.4382145704624 334.4984201312076 905.1002514821308 337.5076792487457L905.1002514821308 337.5076792487457Q905.6095107174064 335.84101266057075 909.9382142172498 332.25304986658307Q914.266917717093 328.66508707259527 916.6974731581815 328.66508707259527Q919.104880452212 328.66508707259527 919.104880452212 335.84101266057075Q919.104880452212 342.99379010148834 916.0956213346739 348.50304910128887L916.0956213346739 348.50304910128887Q914.428954746499 359.66045598323785 914.266917717093 369.1743444240699L914.266917717093 369.1743444240699Q930.6095095400308 348.50304910128887 931.6974724517562 347.32249360133164Q932.7622872164235 346.1650862484323 933.5956205105109 346.1650862484323L933.5956205105109 346.1650862484323Q935.2622870986859 346.1650862484323 935.2622870986859 347.8317528366073L935.2622870986859 347.8317528366073Q935.2622870986859 348.82712316010065 934.6141389810623 350.0076786600579L934.6141389810623 350.0076786600579Q929.2669170106676 357.83175236565705 913.5956214524115 377.5076773649447L913.5956214524115 377.5076773649447Q912.6002511289181 397.3224912465803 912.2761770701062 404.49841683455577L912.2761770701062 404.49841683455577Q911.4428437760188 425.65582324555453 906.350251423262 434.2437858040672Q901.2808072175632 442.8317483625798 888.2715485709754 442.8317483625798L888.2715485709754 442.8317483625798Q882.6002525417688 442.8317483625798 877.6928453654759 439.40582259799794Q872.762290042125 436.0030449804741 872.762290042125 427.57711945136737Q872.762290042125 419.17434206931864 879.197474924245 410.3317498931682Q885.609511659307 401.48915771701775 902.6002515998683 383.15582524709316L902.6002515998683 383.15582524709316L903.5956219233616 363.98915948308115ZM891.928955806137 336.3271237487885L891.928955806137 336.3271237487885Q887.2761782474819 336.3271237487885 882.0215488653192 343.5724937779379Q876.7669194831566 350.8410119541454 876.7669194831566 360.2391596596875Q876.7669194831566 369.6604555122876 879.5215489830567 375.58638115913186Q882.276178482957 381.4891586589182 886.4428449533945 381.4891586589182Q890.6095114238318 381.4891586589182 894.4289556883995 374.6604552768125Q898.271548100025 367.8317518947067 904.2669181880433 351.1650860129572L904.2669181880433 351.1650860129572Q904.6141403939131 345.49378998375073 904.6141403939131 343.9891604249817L904.6141403939131 343.9891604249817Q903.2715478645499 341.4891605427192 899.1048813941125 338.9197162192828Q894.9382149236751 336.3271237487885 891.928955806137 336.3271237487885ZM901.2808072175632 407.32249077563006L902.1141405116506 391.00304709975023Q883.1095117770445 411.4891572460674 883.1095117770445 423.82711962797373L883.1095117770445 423.82711962797373Q883.1095117770445 429.4984156571802 885.1002524240313 433.1558228923419Q887.114141218076 436.8363782745615 890.6095114238318 436.8363782745615L890.6095114238318 436.8363782745615Q895.9335852471685 436.8363782745615 898.1095110706192 431.0030452159492Q900.2622887470117 425.1697121573369 901.2808072175632 407.32249077563006L901.2808072175632 407.32249077563006ZM927.4382133930868 375.0076774826823L927.4382133930868 375.0076774826823L928.4335837165801 356.3271228068879Q928.4335837165801 338.5030495722391 930.1002503047551 336.83638298406413Q931.76691689293 335.16971639588917 936.0261759515994 331.90582766071327Q940.2622868632108 328.66508707259527 942.1835830690236 328.66508707259527Q944.1048792748363 328.66508707259527 944.614138510112 329.33638333727686Q945.1002495983297 330.00767960195844 945.1002495983297 331.9984202489452L945.1002495983297 331.9984202489452Q945.1002495983297 339.1743458369207 941.9289534513856 346.4891603072441L941.9289534513856 346.4891603072441Q939.4289535691233 361.83638180668845 939.4289535691233 371.6743443063324Q939.4289535691233 381.4891586589182 942.6002497160673 381.4891586589182L942.6002497160673 381.4891586589182Q946.4428421276929 381.4891586589182 951.6048789216237 374.82249230621835Q956.7669157155543 368.1558259535185 961.9289525094852 355.00767842458276L961.9289525094852 355.00767842458276Q963.4335820682543 338.34101254283325 964.3595079505736 336.9984200134701Q965.2622856858351 335.6558274841069 968.9428410680549 332.16045727835103Q972.6002483032165 328.66508707259527 975.030803744305 328.66508707259527Q977.4382110383355 328.66508707259527 977.4382110383355 335.00767936648333L977.4382110383355 335.00767936648333Q977.4382110383355 336.6743459546583 976.512285156016 341.4891605427192Q975.6095074207547 346.32712327783827 974.4289519207974 348.50304910128887L974.4289519207974 348.50304910128887Q972.6002483032165 353.15582665994395 972.6002483032165 377.32249218848085L972.6002483032165 377.32249218848085Q972.6002483032165 381.836380864788 973.5956186267099 381.836380864788L973.5956186267099 381.836380864788Q976.4428407148421 381.67434383538205 981.442840479367 374.75304786504444Q986.442840243892 367.8317518947067 991.3502474201848 356.9984190715695Q996.2808027435357 346.1650862484323 997.345617508203 346.1650862484323Q998.4335804199283 346.1650862484323 998.4335804199283 347.5076787777955L998.4335804199283 347.5076787777955Q998.4335804199283 352.1604563364506 993.5956176848093 362.3224928949062L993.5956176848093 362.3224928949062Q980.4474701558737 390.33175083506865 971.4428409503172 390.33175083506865L971.4428409503172 390.33175083506865Q964.9382116270233 390.33175083506865 961.6048784506734 387.6697139234003L961.6048784506734 387.6697139234003Q960.4474710977742 386.4891584234431 960.4474710977742 380.4937883354248Q960.4474710977742 374.49841824740656 960.9335821859919 367.1604556300251L960.9335821859919 367.1604556300251Q955.6095083626551 378.5030476884381 950.2622863922605 384.4058251882244Q944.9382125689239 390.33175083506865 938.3641388044559 390.33175083506865Q931.76691689293 390.33175083506865 929.6141392165374 386.8363806293129Q927.4382133930868 383.341010423557 927.4382133930868 375.0076774826823ZM994.4289509788969 307.9937917498142L994.4289509788969 307.9937917498142Q994.4289509788969 305.00768077933407 997.6002471258408 302.8317549558834Q1000.7715432727849 300.6558291324328 1003.2715431550473 300.6558291324328L1003.2715431550473 300.6558291324328Q1007.7622836842964 300.6558291324328 1007.7622836842964 305.84101407342155Q1007.7622836842964 311.00305086735233 1005.1002467726282 314.753050690746Q1002.4382098609599 318.50305051413966 997.6002471258408 318.50305051413966L997.6002471258408 318.50305051413966Q994.4289509788969 318.50305051413966 994.4289509788969 307.9937917498142ZM999.2669137140158 390.33175083506865L999.2669137140158 390.33175083506865Q992.7622843907219 390.33175083506865 989.428951214372 387.6697139234003L989.428951214372 387.6697139234003Q988.2715438614727 386.4891584234431 988.2715438614727 379.3363809825256Q988.2715438614727 372.16045539455 989.3595067731981 355.4243450716265Q990.4474696849234 338.66508660164504 991.2808029790109 337.32249407228187Q992.1141362730983 336.0030496899767 996.4428397729415 332.322494307757Q1000.7715432727849 328.66508707259527 1003.1789505668154 328.66508707259527Q1005.6095060079039 328.66508707259527 1005.6095060079039 335.00767936648333L1005.6095060079039 335.00767936648333Q1005.6095060079039 336.6743459546583 1004.6835801255844 341.4891605427192Q1003.780802390323 346.32712327783827 1002.6002468903657 348.50304910128887L1002.6002468903657 348.50304910128887Q1000.447469213973 353.9891599540314 1000.447469213973 377.32249218848085L1000.447469213973 377.32249218848085Q1000.447469213973 381.836380864788 1001.4428395374665 381.836380864788L1001.4428395374665 381.836380864788Q1004.2669134785407 381.67434383538205 1009.2669132430656 374.75304786504444Q1014.2669130075905 367.8317518947067 1019.1974683309413 356.9984190715695Q1024.1048755072343 346.1650862484323 1025.1928384189596 346.1650862484323Q1026.2808013306849 346.1650862484323 1026.2808013306849 347.5076787777955L1026.2808013306849 347.5076787777955Q1026.2808013306849 352.1604563364506 1021.4428385955661 362.3224928949062L1021.4428385955661 362.3224928949062Q1008.2715429195722 390.33175083506865 999.2669137140158 390.33175083506865ZM1064.2669106528392 390.33175083506865L1064.2669106528392 390.33175083506865Q1057.7622813295452 390.33175083506865 1054.4289481531955 387.6697139234003L1054.4289481531955 387.6697139234003Q1053.271540800296 386.4891584234431 1053.271540800296 381.7437882765561Q1053.271540800296 376.99841812966906 1053.5956148591079 368.98915924760604L1053.5956148591079 368.98915924760604Q1049.2669113592647 379.82249207074324 1045.0308004476533 385.077121452906Q1040.771541388984 390.33175083506865 1034.104875036284 390.33175083506865Q1027.4382086835842 390.33175083506865 1022.4382089190593 384.0817511294126Q1017.4382091545344 377.8317514237565 1017.4382091545344 364.40582613012486Q1017.4382091545344 351.00304898355125 1025.0308013895537 340.6558272486318Q1032.6002454775148 330.33175366077023 1044.9382078594213 330.33175366077023L1044.9382078594213 330.33175366077023Q1050.262281682758 330.33175366077023 1056.9289480354578 337.32249407228187L1056.9289480354578 337.32249407228187Q1058.271540564821 335.49379045470096 1061.6974663294027 332.92434613126466Q1065.1002439469266 330.33175366077023 1067.530799388015 330.33175366077023Q1069.9382066820458 330.33175366077023 1069.9382066820458 336.6743459546583L1069.9382066820458 336.6743459546583Q1069.9382066820458 338.34101254283325 1069.0122807997263 343.1558271308942Q1068.1095030644647 347.9937898660131 1066.9289475645073 350.1697156894638L1066.9289475645073 350.1697156894638Q1065.4474661527966 353.9891599540314 1065.4474661527966 377.32249218848085L1065.4474661527966 377.32249218848085Q1065.4474661527966 381.836380864788 1066.4428364762898 381.836380864788L1066.4428364762898 381.836380864788Q1069.2669104173642 381.67434383538205 1074.2669101818888 374.75304786504444Q1079.2669099464138 367.8317518947067 1084.1974652697647 356.9984190715695Q1089.1048724460575 346.1650862484323 1090.1928353577828 346.1650862484323Q1091.2807982695083 346.1650862484323 1091.2807982695083 347.5076787777955L1091.2807982695083 347.5076787777955Q1091.2807982695083 352.1604563364506 1086.4428355343894 362.3224928949062L1086.4428355343894 362.3224928949062Q1073.2715398583955 390.33175083506865 1064.2669106528392 390.33175083506865ZM1043.942837535928 336.9984200134701L1043.942837535928 336.9984200134701Q1039.2669118302147 336.9984200134701 1034.0122824480522 343.9197159838077Q1028.7808012129472 350.8410119541454 1028.7808012129472 360.1697152185136Q1028.7808012129472 369.4984184828817 1031.5122825657895 375.49378857089994Q1034.2669120656901 381.4891586589182 1038.7808007419972 381.4891586589182L1038.7808007419972 381.4891586589182Q1044.2669115947397 381.4891586589182 1054.938207388471 353.9891599540314L1054.938207388471 353.9891599540314Q1055.100244417877 352.6697155717262 1055.3548740355145 349.4058268365503Q1055.6095036531526 346.1650862484323 1055.7715406825585 344.49841966025735L1055.7715406825585 344.49841966025735Q1054.2669111237892 341.836382748589 1050.5169113003958 339.40582730750054Q1046.766911477002 336.9984200134701 1043.942837535928 336.9984200134701ZM1095.7715387987573 346.00304921902637L1095.7715387987573 346.00304921902637L1104.9382050337197 345.007678895533Q1106.280797563083 345.007678895533 1107.2761678865763 346.4891603072441Q1108.2715382100696 347.9937898660131 1108.2715382100696 349.6604564541881Q1108.2715382100696 351.32712304236304 1107.1835752983443 361.003048512601Q1106.095612386619 370.655825835781 1106.095612386619 376.25767742381345Q1106.095612386619 381.836380864788 1107.1141308571703 381.836380864788L1107.1141308571703 381.836380864788Q1109.9382047982444 381.67434383538205 1114.9382045627694 374.75304786504444Q1119.9382043272944 367.8317518947067 1124.8456115035872 356.9984190715695Q1129.7761668269382 346.1650862484323 1130.8641297386635 346.1650862484323Q1131.928944503331 346.1650862484323 1131.928944503331 347.5076787777955L1131.928944503331 347.5076787777955Q1131.928944503331 352.1604563364506 1127.1141299152698 362.3224928949062L1127.1141299152698 362.3224928949062Q1113.9428342392762 390.33175083506865 1104.9382050337197 390.33175083506865L1104.9382050337197 390.33175083506865Q1098.4335757104259 390.33175083506865 1095.1002425340757 387.6697139234003L1095.1002425340757 387.6697139234003Q1093.9428351811766 386.4891584234431 1093.9428351811766 373.1558257180434Q1093.9428351811766 359.8224930126438 1096.7669091222508 350.33175271886967L1096.7669091222508 350.33175271886967Q1087.114131799071 350.33175271886967 1083.271539387445 344.17434560144557L1083.271539387445 344.17434560144557Q1081.2807987404585 341.0030494545016 1081.2807987404585 336.9984200134701Q1081.2807987404585 332.99379057243857 1082.9474653286334 330.00767960195844Q1084.6141319168084 326.9984204844203 1087.6928354755205 326.9984204844203Q1090.7715390342328 326.9984204844203 1093.364131504727 330.2391610725383Q1095.9335758281632 333.5030498077142 1095.9335758281632 337.5076792487457Q1095.9335758281632 341.4891605427192 1093.5956129753067 345.49378998375073L1093.5956129753067 345.49378998375073Q1094.2669092399883 346.00304921902637 1095.7715387987573 346.00304921902637ZM1135.6094998855506 392.50767665851936Q1133.109500003288 392.50767665851936 1130.7715371504314 390.9104545115183Q1128.433574297575 389.33638051157527 1128.433574297575 385.65582512935566Q1128.433574297575 381.99841789419384 1131.766907473925 379.91508465897516Q1135.1002406502748 377.8317514237565 1137.947462738407 377.8317514237565Q1140.7715366794814 377.8317514237565 1142.6928328852941 379.4058254236995Q1144.6141290911069 381.00304757070046 1144.6141290911069 383.341010423557L1144.6141290911069 383.341010423557Q1144.6141290911069 392.50767665851936 1135.6094998855506 392.50767665851936L1135.6094998855506 392.50767665851936ZM1159.6141283846814 307.9937917498142L1159.6141283846814 307.9937917498142Q1159.6141283846814 305.00768077933407 1162.7622763845675 302.8317549558834Q1165.9335725315116 300.6558291324328 1168.433572413774 300.6558291324328L1168.433572413774 300.6558291324328Q1172.947461090081 300.6558291324328 1172.947461090081 305.84101407342155Q1172.947461090081 311.00305086735233 1170.2622760313548 314.753050690746Q1167.6002391196866 318.50305051413966 1162.7622763845675 318.50305051413966L1162.7622763845675 318.50305051413966Q1159.6141283846814 318.50305051413966 1159.6141283846814 307.9937917498142ZM1164.4289429727423 390.33175083506865L1164.4289429727423 390.33175083506865Q1157.9474617965066 390.33175083506865 1154.6141286201564 387.6697139234003L1154.6141286201564 387.6697139234003Q1153.4335731201995 386.4891584234431 1153.4335731201995 379.3363809825256Q1153.4335731201995 372.16045539455 1154.5215360319248 355.4243450716265Q1155.6094989436501 338.66508660164504 1156.4428322377375 337.32249407228187Q1157.276165531825 336.0030496899767 1161.6048690316684 332.322494307757Q1165.9335725315116 328.66508707259527 1168.3641279726 328.66508707259527Q1170.7715352666305 328.66508707259527 1170.7715352666305 335.00767936648333L1170.7715352666305 335.00767936648333Q1170.7715352666305 336.6743459546583 1169.845609384311 341.4891605427192Q1168.9428316490498 346.32712327783827 1167.7622761490925 348.50304910128887L1167.7622761490925 348.50304910128887Q1165.6094984726997 353.9891599540314 1165.6094984726997 377.32249218848085L1165.6094984726997 377.32249218848085Q1165.6094984726997 381.836380864788 1166.6048687961932 381.836380864788L1166.6048687961932 381.836380864788Q1169.4289427372673 381.67434383538205 1174.4289425017923 374.75304786504444Q1179.428942266317 367.8317518947067 1184.359497589668 356.9984190715695Q1189.266904765961 346.1650862484323 1190.3548676776863 346.1650862484323Q1191.4428305894116 346.1650862484323 1191.4428305894116 347.5076787777955L1191.4428305894116 347.5076787777955Q1191.4428305894116 352.1604563364506 1186.6048678542925 362.3224928949062L1186.6048678542925 362.3224928949062Q1173.4335721782988 390.33175083506865 1164.4289429727423 390.33175083506865ZM1234.7761618819604 353.3410118364078L1234.7761618819604 353.3410118364078Q1241.4428282346603 351.1650860129572 1244.0122725580968 349.59101201301416Q1246.6048650285911 347.9937898660131 1247.9474575579543 347.1604565719257L1247.9474575579543 347.1604565719257L1249.9381982049408 346.00304921902637Q1250.7715314990287 345.49378998375073 1251.280790734304 345.49378998375073L1251.280790734304 345.49378998375073Q1252.6002351166094 345.49378998375073 1252.6002351166094 346.99841954251974Q1252.6002351166094 348.50304910128887 1247.4381983226785 352.2530489246825Q1242.2761615287477 356.00304874807614 1234.6141248525546 358.98915971855627L1234.6141248525546 358.98915971855627Q1233.4335693525973 372.99378868863755 1225.7715326764041 381.67434383538205Q1218.109496000211 390.33175083506865 1203.942830000724 390.33175083506865L1203.942830000724 390.33175083506865Q1193.5956082658045 390.33175083506865 1188.1094974130617 382.0910104824259Q1182.6002384132612 373.827121982725 1182.6002384132612 362.7391595419499Q1182.6002384132612 351.67434524823284 1189.197460324787 341.836382748589Q1195.771534089255 331.9984202489452 1206.0956076771163 331.9984202489452L1206.0956076771163 331.9984202489452Q1210.7715333828296 328.66508707259527 1217.1835701178916 328.66508707259527Q1223.5956068529536 328.66508707259527 1229.1048658527538 335.49379045470096Q1234.6141248525546 342.32249383680676 1234.7761618819604 353.3410118364078ZM1223.9428290588235 361.83638180668845L1223.9428290588235 361.83638180668845L1217.9474589708052 362.16045586550035Q1210.2622741475539 362.16045586550035 1204.9382003242172 357.5771227480192Q1199.6141265008805 352.993789630538 1199.6141265008805 347.5076787777955Q1199.6141265008805 341.99841977799497 1201.4428301184612 337.99379033696346L1201.4428301184612 337.99379033696346Q1194.2669045304858 343.66508636616993 1194.2669045304858 360.33175224791944L1194.2669045304858 360.33175224791944Q1194.2669045304858 368.34101112998246 1197.6002377068357 375.58638115913186Q1200.9335708831857 382.8317511882814 1208.109496471161 382.8317511882814Q1215.2622739120789 382.8317511882814 1219.2669033531101 376.7437885120312Q1223.2715327941419 370.655825835781 1223.9428290588235 361.83638180668845ZM1213.5956073239036 334.1743460723958L1213.5956073239036 334.1743460723958Q1210.9335704122354 334.1743460723958 1209.4289408534664 336.58175336642637Q1207.9474594417552 338.98916066045683 1207.9474594417552 341.836382748589L1207.9474594417552 341.836382748589Q1207.9474594417552 347.9937898660131 1212.1835703533666 351.8363822776388Q1216.4428294120362 355.65582654220634 1222.1141254412423 355.65582654220634L1222.1141254412423 355.65582654220634L1224.1048660882293 355.65582654220634Q1223.7807920294172 347.5076787777955 1221.3502365883292 340.84101242509564Q1218.9428292942985 334.1743460723958 1213.5956073239036 334.1743460723958Z " fill="#151c48" transform="matrix(0.6985468456753732,0,0,0.6985468456753732,0,43.05226274892166)"/></g></svg>